<svg width="38" height="38" viewBox="0 0 38 38" fill="none" xmlns="http://www.w3.org/2000/svg">
<rect x="1" y="1" width="36" height="36" rx="8" fill="#FFF1EF" stroke="#FD7060" strokeWidth="1.5"/>
<path d="M10 20.125C10 19.504 10.504 19 11.125 19H13.375C13.996 19 14.5 19.504 14.5 20.125V26.875C14.5 27.496 13.996 28 13.375 28H11.125C10.8266 28 10.5405 27.8815 10.3295 27.6705C10.1185 27.4595 10 27.1734 10 26.875V20.125ZM16.75 15.625C16.75 15.004 17.254 14.5 17.875 14.5H20.125C20.746 14.5 21.25 15.004 21.25 15.625V26.875C21.25 27.496 20.746 28 20.125 28H17.875C17.5766 28 17.2905 27.8815 17.0795 27.6705C16.8685 27.4595 16.75 27.1734 16.75 26.875V15.625ZM23.5 11.125C23.5 10.504 24.004 10 24.625 10H26.875C27.496 10 28 10.504 28 11.125V26.875C28 27.496 27.496 28 26.875 28H24.625C24.3266 28 24.0405 27.8815 23.8295 27.6705C23.6185 27.4595 23.5 27.1734 23.5 26.875V11.125Z" fill="white" stroke="#FD7060" strokeWidth="1.5" strokeLinecap="round" strokeLinejoin="round"/>
</svg>
