<svg width="38" height="38" viewBox="0 0 38 38" fill="none" xmlns="http://www.w3.org/2000/svg">
<rect x="1" y="1" width="36" height="36" rx="8" fill="#FFF1EF" stroke="#FD7060" stroke-width="1.5"/>
<rect x="9.5" y="13" width="19" height="12" rx="1" fill="white"/>
<path d="M9.5 26.909C14.6988 26.9048 19.875 27.5945 24.8919 28.9598C25.6003 29.153 26.3077 28.626 26.3077 27.89V26.909M10.9615 13V13.7321C10.9615 13.9262 10.8845 14.1124 10.7475 14.2497C10.6105 14.387 10.4246 14.4641 10.2308 14.4641H9.5M9.5 14.4641V14.0981C9.5 13.4919 9.99108 13 10.5962 13H27.0385M9.5 14.4641V23.2488M27.0385 13V13.7321C27.0385 14.1361 27.3658 14.4641 27.7692 14.4641H28.5M27.0385 13H27.4038C28.0089 13 28.5 13.4919 28.5 14.0981V23.6148C28.5 24.2209 28.0089 24.7129 27.4038 24.7129H27.0385M9.5 23.2488V23.6148C9.5 23.906 9.61549 24.1853 9.82106 24.3913C10.0266 24.5972 10.3054 24.7129 10.5962 24.7129H10.9615M9.5 23.2488H10.2308C10.4246 23.2488 10.6105 23.3259 10.7475 23.4632C10.8845 23.6005 10.9615 23.7867 10.9615 23.9808V24.7129M27.0385 24.7129V23.9808C27.0385 23.7867 27.1155 23.6005 27.2525 23.4632C27.3895 23.3259 27.5754 23.2488 27.7692 23.2488H28.5M27.0385 24.7129H10.9615M21.9231 18.8564C21.9231 19.6331 21.6151 20.3779 21.0669 20.927C20.5187 21.4762 19.7752 21.7847 19 21.7847C18.2248 21.7847 17.4813 21.4762 16.9331 20.927C16.3849 20.3779 16.0769 19.6331 16.0769 18.8564C16.0769 18.0798 16.3849 17.335 16.9331 16.7859C17.4813 16.2367 18.2248 15.9282 19 15.9282C19.7752 15.9282 20.5187 16.2367 21.0669 16.7859C21.6151 17.335 21.9231 18.0798 21.9231 18.8564ZM24.8462 18.8564H24.8539V18.8643H24.8462V18.8564ZM13.1538 18.8564H13.1616V18.8643H13.1538V18.8564Z" stroke="#FD7060" stroke-width="1.5" stroke-linecap="round" stroke-linejoin="round"/>
</svg>
